<svg xmlns="http://www.w3.org/2000/svg" version="1.1" xmlns:xlink="http://www.w3.org/1999/xlink" xmlns:svgjs="http://svgjs.dev/svgjs" width="1440" height="560" preserveAspectRatio="none" viewBox="0 0 1440 560"><g mask="url(&quot;#SvgjsMask1051&quot;)" fill="none"><rect width="1440" height="560" x="0" y="0" fill="#1e3266"></rect><path d="M1560 560L0 560 L0 435.57Q48 363.57, 120 411.58Q170.46 342.04, 240 392.51Q292.88 325.39, 360 378.28Q440.89 339.17, 480 420.06Q508.5 376.56, 552 405.07Q606.83 339.89, 672 394.72Q719.18 369.9, 744 417.08Q790.96 392.03, 816 438.99Q856.4 359.39, 936 399.8Q964.22 356.02, 1008 384.25Q1094.77 351.02, 1128 437.8Q1153.91 391.72, 1200 417.63Q1245.63 343.26, 1320 388.9Q1400.15 349.05, 1440 429.21Q1486.78 355.99, 1560 402.77z" fill="#182f5d"></path><path d="M1488 560L0 560 L0 476.34Q56.37 412.7, 120 469.07Q135.78 412.85, 192 428.63Q240.74 405.37, 264 454.11Q339.63 409.74, 384 485.36Q410.11 439.47, 456 465.58Q484.24 421.81, 528 450.05Q579.5 381.55, 648 433.05Q726.86 391.91, 768 470.77Q819.43 402.2, 888 453.63Q962.69 408.32, 1008 483.01Q1036.53 439.54, 1080 468.07Q1097.69 413.76, 1152 431.46Q1223.13 382.6, 1272 453.73Q1313.83 423.56, 1344 465.39Q1389.63 439.02, 1416 484.66Q1429.35 426, 1488 439.35z" fill="#25467d"></path><path d="M1464 560L0 560 L0 496.71Q43.8 468.5, 72 512.3Q91.13 459.42, 144 478.55Q212.57 427.13, 264 495.7Q310.35 422.05, 384 468.4Q473.5 437.9, 504 527.41Q530.34 481.75, 576 508.08Q602.35 462.42, 648 488.77Q726.88 447.65, 768 526.54Q798.84 485.38, 840 516.22Q892.52 448.74, 960 501.26Q1035.4 456.66, 1080 532.07Q1095.11 475.18, 1152 490.29Q1204.96 423.25, 1272 476.22Q1350.33 434.55, 1392 512.88Q1434.58 483.46, 1464 526.05z" fill="#356cb1"></path><path d="M1536 560L0 560 L0 521.95Q83.75 485.7, 120 569.45Q173.91 503.36, 240 557.27Q289.31 486.58, 360 535.88Q390.54 494.42, 432 524.97Q480.45 501.42, 504 549.87Q546.23 472.1, 624 514.33Q665.83 484.16, 696 525.99Q756.06 514.05, 768 574.1Q818.17 504.27, 888 554.44Q906.35 500.79, 960 519.14Q1044.13 483.26, 1080 567.39Q1097.34 512.72, 1152 530.06Q1225.33 483.38, 1272 556.71Q1314.42 527.13, 1344 569.55Q1367.93 521.48, 1416 545.42Q1460.47 469.89, 1536 514.36z" fill="white"></path></g><defs><mask id="SvgjsMask1051"><rect width="1440" height="560" fill="#ffffff"></rect></mask></defs></svg>