<svg xmlns="http://www.w3.org/2000/svg" version="1.1" xmlns:xlink="http://www.w3.org/1999/xlink" xmlns:svgjs="http://svgjs.dev/svgjs" width="1440" height="560" preserveAspectRatio="none" viewBox="0 0 1440 560"><g mask="url(&quot;#SvgjsMask1009&quot;)" fill="none"><rect width="1440" height="560" x="0" y="0" fill="url(&quot;#SvgjsLinearGradient1010&quot;)"></rect><path d="M-85 345.83L-85 345.83" stroke="#132e65" stroke-width="1.5"></path><path d="M-85 345.83L-102.67 489.83" stroke="#132e65" stroke-width="1.5"></path><path d="M-85 345.83L49.04 403.41" stroke="#132e65" stroke-width="1.5"></path><path d="M-85 345.83L86.7 561.04" stroke="#132e65" stroke-width="1.5"></path><path d="M-85 345.83L191.39 399.59" stroke="#132e65" stroke-width="1.5"></path><path d="M-85 345.83L-50.18 652.38" stroke="#132e65" stroke-width="1.5"></path><path d="M-102.67 489.83L-102.67 489.83" stroke="#132e65" stroke-width="1.5"></path><path d="M-102.67 489.83L-50.18 652.38" stroke="#132e65" stroke-width="1.5"></path><path d="M-102.67 489.83L49.04 403.41" stroke="#132e65" stroke-width="1.5"></path><path d="M-50.18 652.38L-50.18 652.38" stroke="#132e65" stroke-width="1.5"></path><path d="M-50.18 652.38L74.77 682.15" stroke="#132e65" stroke-width="1.5"></path><path d="M-50.18 652.38L86.7 561.04" stroke="#132e65" stroke-width="1.5"></path><path d="M-50.18 652.38L49.04 403.41" stroke="#132e65" stroke-width="1.5"></path><path d="M-50.18 652.38L202.96 538.99" stroke="#132e65" stroke-width="1.5"></path><path d="M49.04 403.41L49.04 403.41" stroke="#132e65" stroke-width="1.5"></path><path d="M49.04 403.41L191.39 399.59" stroke="#132e65" stroke-width="1.5"></path><path d="M49.04 403.41L86.7 561.04" stroke="#132e65" stroke-width="1.5"></path><path d="M86.7 561.04L86.7 561.04" stroke="#132e65" stroke-width="1.5"></path><path d="M86.7 561.04L202.96 538.99" stroke="#132e65" stroke-width="1.5"></path><path d="M86.7 561.04L74.77 682.15" stroke="#132e65" stroke-width="1.5"></path><path d="M74.77 682.15L74.77 682.15" stroke="#132e65" stroke-width="1.5"></path><path d="M74.77 682.15L258.54 710.6" stroke="#132e65" stroke-width="1.5"></path><path d="M74.77 682.15L202.96 538.99" stroke="#132e65" stroke-width="1.5"></path><path d="M74.77 682.15L-102.67 489.83" stroke="#132e65" stroke-width="1.5"></path><path d="M191.39 399.59L191.39 399.59" stroke="#132e65" stroke-width="1.5"></path><path d="M191.39 399.59L202.96 538.99" stroke="#132e65" stroke-width="1.5"></path><path d="M191.39 399.59L86.7 561.04" stroke="#132e65" stroke-width="1.5"></path><path d="M191.39 399.59L390.04 379.01" stroke="#132e65" stroke-width="1.5"></path><path d="M202.96 538.99L202.96 538.99" stroke="#132e65" stroke-width="1.5"></path><path d="M202.96 538.99L371.7 541.94" stroke="#132e65" stroke-width="1.5"></path><path d="M258.54 710.6L258.54 710.6" stroke="#132e65" stroke-width="1.5"></path><path d="M258.54 710.6L388.05 670.57" stroke="#132e65" stroke-width="1.5"></path><path d="M258.54 710.6L202.96 538.99" stroke="#132e65" stroke-width="1.5"></path><path d="M258.54 710.6L371.7 541.94" stroke="#132e65" stroke-width="1.5"></path><path d="M258.54 710.6L86.7 561.04" stroke="#132e65" stroke-width="1.5"></path><path d="M258.54 710.6L543.03 677.69" stroke="#132e65" stroke-width="1.5"></path><path d="M390.04 379.01L390.04 379.01" stroke="#132e65" stroke-width="1.5"></path><path d="M390.04 379.01L371.7 541.94" stroke="#132e65" stroke-width="1.5"></path><path d="M390.04 379.01L560.68 379.58" stroke="#132e65" stroke-width="1.5"></path><path d="M371.7 541.94L371.7 541.94" stroke="#132e65" stroke-width="1.5"></path><path d="M371.7 541.94L388.05 670.57" stroke="#132e65" stroke-width="1.5"></path><path d="M371.7 541.94L514.17 515.88" stroke="#132e65" stroke-width="1.5"></path><path d="M371.7 541.94L543.03 677.69" stroke="#132e65" stroke-width="1.5"></path><path d="M388.05 670.57L388.05 670.57" stroke="#132e65" stroke-width="1.5"></path><path d="M388.05 670.57L543.03 677.69" stroke="#132e65" stroke-width="1.5"></path><path d="M388.05 670.57L514.17 515.88" stroke="#132e65" stroke-width="1.5"></path><path d="M560.68 379.58L560.68 379.58" stroke="#132e65" stroke-width="1.5"></path><path d="M560.68 379.58L681.44 393.02" stroke="#132e65" stroke-width="1.5"></path><path d="M560.68 379.58L514.17 515.88" stroke="#132e65" stroke-width="1.5"></path><path d="M560.68 379.58L688.85 534.83" stroke="#132e65" stroke-width="1.5"></path><path d="M560.68 379.58L371.7 541.94" stroke="#132e65" stroke-width="1.5"></path><path d="M514.17 515.88L514.17 515.88" stroke="#132e65" stroke-width="1.5"></path><path d="M514.17 515.88L543.03 677.69" stroke="#132e65" stroke-width="1.5"></path><path d="M514.17 515.88L688.85 534.83" stroke="#132e65" stroke-width="1.5"></path><path d="M514.17 515.88L390.04 379.01" stroke="#132e65" stroke-width="1.5"></path><path d="M543.03 677.69L543.03 677.69" stroke="#132e65" stroke-width="1.5"></path><path d="M543.03 677.69L642.78 710.19" stroke="#132e65" stroke-width="1.5"></path><path d="M543.03 677.69L688.85 534.83" stroke="#132e65" stroke-width="1.5"></path><path d="M681.44 393.02L681.44 393.02" stroke="#132e65" stroke-width="1.5"></path><path d="M681.44 393.02L688.85 534.83" stroke="#132e65" stroke-width="1.5"></path><path d="M681.44 393.02L830.93 397.33" stroke="#132e65" stroke-width="1.5"></path><path d="M681.44 393.02L514.17 515.88" stroke="#132e65" stroke-width="1.5"></path><path d="M688.85 534.83L688.85 534.83" stroke="#132e65" stroke-width="1.5"></path><path d="M688.85 534.83L829.4 545.47" stroke="#132e65" stroke-width="1.5"></path><path d="M688.85 534.83L642.78 710.19" stroke="#132e65" stroke-width="1.5"></path><path d="M642.78 710.19L642.78 710.19" stroke="#132e65" stroke-width="1.5"></path><path d="M642.78 710.19L800.87 685.02" stroke="#132e65" stroke-width="1.5"></path><path d="M642.78 710.19L514.17 515.88" stroke="#132e65" stroke-width="1.5"></path><path d="M642.78 710.19L829.4 545.47" stroke="#132e65" stroke-width="1.5"></path><path d="M642.78 710.19L388.05 670.57" stroke="#132e65" stroke-width="1.5"></path><path d="M851.72 220.46L851.72 220.46" stroke="#132e65" stroke-width="1.5"></path><path d="M851.72 220.46L948.28 234.75" stroke="#132e65" stroke-width="1.5"></path><path d="M851.72 220.46L830.93 397.33" stroke="#132e65" stroke-width="1.5"></path><path d="M851.72 220.46L946.33 386.91" stroke="#132e65" stroke-width="1.5"></path><path d="M830.93 397.33L830.93 397.33" stroke="#132e65" stroke-width="1.5"></path><path d="M830.93 397.33L946.33 386.91" stroke="#132e65" stroke-width="1.5"></path><path d="M830.93 397.33L829.4 545.47" stroke="#132e65" stroke-width="1.5"></path><path d="M829.4 545.47L829.4 545.47" stroke="#132e65" stroke-width="1.5"></path><path d="M829.4 545.47L938.11 557.48" stroke="#132e65" stroke-width="1.5"></path><path d="M829.4 545.47L800.87 685.02" stroke="#132e65" stroke-width="1.5"></path><path d="M829.4 545.47L978.66 655.02" stroke="#132e65" stroke-width="1.5"></path><path d="M829.4 545.47L946.33 386.91" stroke="#132e65" stroke-width="1.5"></path><path d="M800.87 685.02L800.87 685.02" stroke="#132e65" stroke-width="1.5"></path><path d="M800.87 685.02L978.66 655.02" stroke="#132e65" stroke-width="1.5"></path><path d="M800.87 685.02L938.11 557.48" stroke="#132e65" stroke-width="1.5"></path><path d="M800.87 685.02L688.85 534.83" stroke="#132e65" stroke-width="1.5"></path><path d="M971.72 46.46L971.72 46.46" stroke="#132e65" stroke-width="1.5"></path><path d="M971.72 46.46L1114.05 -52.52" stroke="#132e65" stroke-width="1.5"></path><path d="M971.72 46.46L948.28 234.75" stroke="#132e65" stroke-width="1.5"></path><path d="M948.28 234.75L948.28 234.75" stroke="#132e65" stroke-width="1.5"></path><path d="M948.28 234.75L1090.79 209.46" stroke="#132e65" stroke-width="1.5"></path><path d="M948.28 234.75L946.33 386.91" stroke="#132e65" stroke-width="1.5"></path><path d="M948.28 234.75L830.93 397.33" stroke="#132e65" stroke-width="1.5"></path><path d="M948.28 234.75L1138.2 342.1" stroke="#132e65" stroke-width="1.5"></path><path d="M946.33 386.91L946.33 386.91" stroke="#132e65" stroke-width="1.5"></path><path d="M946.33 386.91L938.11 557.48" stroke="#132e65" stroke-width="1.5"></path><path d="M938.11 557.48L938.11 557.48" stroke="#132e65" stroke-width="1.5"></path><path d="M938.11 557.48L978.66 655.02" stroke="#132e65" stroke-width="1.5"></path><path d="M978.66 655.02L978.66 655.02" stroke="#132e65" stroke-width="1.5"></path><path d="M978.66 655.02L1102.42 556.97" stroke="#132e65" stroke-width="1.5"></path><path d="M978.66 655.02L1148.53 708.98" stroke="#132e65" stroke-width="1.5"></path><path d="M1114.05 -52.52L1114.05 -52.52" stroke="#132e65" stroke-width="1.5"></path><path d="M1114.05 -52.52L1278.51 -71.05" stroke="#132e65" stroke-width="1.5"></path><path d="M1090.79 209.46L1090.79 209.46" stroke="#132e65" stroke-width="1.5"></path><path d="M1090.79 209.46L1138.2 342.1" stroke="#132e65" stroke-width="1.5"></path><path d="M1138.2 342.1L1138.2 342.1" stroke="#132e65" stroke-width="1.5"></path><path d="M1138.2 342.1L1238.39 339.73" stroke="#132e65" stroke-width="1.5"></path><path d="M1138.2 342.1L1262.93 246.39" stroke="#132e65" stroke-width="1.5"></path><path d="M1138.2 342.1L946.33 386.91" stroke="#132e65" stroke-width="1.5"></path><path d="M1138.2 342.1L1102.42 556.97" stroke="#132e65" stroke-width="1.5"></path><path d="M1102.42 556.97L1102.42 556.97" stroke="#132e65" stroke-width="1.5"></path><path d="M1102.42 556.97L1148.53 708.98" stroke="#132e65" stroke-width="1.5"></path><path d="M1102.42 556.97L938.11 557.48" stroke="#132e65" stroke-width="1.5"></path><path d="M1102.42 556.97L1271.24 663.33" stroke="#132e65" stroke-width="1.5"></path><path d="M1102.42 556.97L946.33 386.91" stroke="#132e65" stroke-width="1.5"></path><path d="M1148.53 708.98L1148.53 708.98" stroke="#132e65" stroke-width="1.5"></path><path d="M1148.53 708.98L1271.24 663.33" stroke="#132e65" stroke-width="1.5"></path><path d="M1278.51 -71.05L1278.51 -71.05" stroke="#132e65" stroke-width="1.5"></path><path d="M1278.51 -71.05L1432.75 -96.21" stroke="#132e65" stroke-width="1.5"></path><path d="M1278.51 -71.05L1259.82 105.28" stroke="#132e65" stroke-width="1.5"></path><path d="M1278.51 -71.05L1572.07 -100.95" stroke="#132e65" stroke-width="1.5"></path><path d="M1278.51 -71.05L1563.06 68.33" stroke="#132e65" stroke-width="1.5"></path><path d="M1278.51 -71.05L1262.93 246.39" stroke="#132e65" stroke-width="1.5"></path><path d="M1259.82 105.28L1259.82 105.28" stroke="#132e65" stroke-width="1.5"></path><path d="M1259.82 105.28L1262.93 246.39" stroke="#132e65" stroke-width="1.5"></path><path d="M1262.93 246.39L1262.93 246.39" stroke="#132e65" stroke-width="1.5"></path><path d="M1262.93 246.39L1238.39 339.73" stroke="#132e65" stroke-width="1.5"></path><path d="M1262.93 246.39L1437.04 255.33" stroke="#132e65" stroke-width="1.5"></path><path d="M1262.93 246.39L1090.79 209.46" stroke="#132e65" stroke-width="1.5"></path><path d="M1238.39 339.73L1238.39 339.73" stroke="#132e65" stroke-width="1.5"></path><path d="M1238.39 339.73L1431.37 368.2" stroke="#132e65" stroke-width="1.5"></path><path d="M1238.39 339.73L1090.79 209.46" stroke="#132e65" stroke-width="1.5"></path><path d="M1238.39 339.73L1437.04 255.33" stroke="#132e65" stroke-width="1.5"></path><path d="M1238.39 339.73L1259.82 105.28" stroke="#132e65" stroke-width="1.5"></path><path d="M1271.24 663.33L1271.24 663.33" stroke="#132e65" stroke-width="1.5"></path><path d="M1271.24 663.33L1417.06 522.99" stroke="#132e65" stroke-width="1.5"></path><path d="M1271.24 663.33L978.66 655.02" stroke="#132e65" stroke-width="1.5"></path><path d="M1432.75 -96.21L1432.75 -96.21" stroke="#132e65" stroke-width="1.5"></path><path d="M1432.75 -96.21L1572.07 -100.95" stroke="#132e65" stroke-width="1.5"></path><path d="M1437.04 255.33L1437.04 255.33" stroke="#132e65" stroke-width="1.5"></path><path d="M1437.04 255.33L1431.37 368.2" stroke="#132e65" stroke-width="1.5"></path><path d="M1437.04 255.33L1575.72 201.34" stroke="#132e65" stroke-width="1.5"></path><path d="M1437.04 255.33L1560.48 371.37" stroke="#132e65" stroke-width="1.5"></path><path d="M1431.37 368.2L1431.37 368.2" stroke="#132e65" stroke-width="1.5"></path><path d="M1431.37 368.2L1560.48 371.37" stroke="#132e65" stroke-width="1.5"></path><path d="M1431.37 368.2L1417.06 522.99" stroke="#132e65" stroke-width="1.5"></path><path d="M1431.37 368.2L1262.93 246.39" stroke="#132e65" stroke-width="1.5"></path><path d="M1431.37 368.2L1598.24 507.52" stroke="#132e65" stroke-width="1.5"></path><path d="M1417.06 522.99L1417.06 522.99" stroke="#132e65" stroke-width="1.5"></path><path d="M1417.06 522.99L1598.24 507.52" stroke="#132e65" stroke-width="1.5"></path><path d="M1417.06 522.99L1560.48 371.37" stroke="#132e65" stroke-width="1.5"></path><path d="M1417.06 522.99L1598.34 681.59" stroke="#132e65" stroke-width="1.5"></path><path d="M1417.06 522.99L1238.39 339.73" stroke="#132e65" stroke-width="1.5"></path><path d="M1572.07 -100.95L1572.07 -100.95" stroke="#132e65" stroke-width="1.5"></path><path d="M1572.07 -100.95L1563.06 68.33" stroke="#132e65" stroke-width="1.5"></path><path d="M1563.06 68.33L1563.06 68.33" stroke="#132e65" stroke-width="1.5"></path><path d="M1563.06 68.33L1575.72 201.34" stroke="#132e65" stroke-width="1.5"></path><path d="M1575.72 201.34L1575.72 201.34" stroke="#132e65" stroke-width="1.5"></path><path d="M1575.72 201.34L1560.48 371.37" stroke="#132e65" stroke-width="1.5"></path><path d="M1575.72 201.34L1431.37 368.2" stroke="#132e65" stroke-width="1.5"></path><path d="M1575.72 201.34L1572.07 -100.95" stroke="#132e65" stroke-width="1.5"></path><path d="M1560.48 371.37L1560.48 371.37" stroke="#132e65" stroke-width="1.5"></path><path d="M1560.48 371.37L1598.24 507.52" stroke="#132e65" stroke-width="1.5"></path><path d="M1598.24 507.52L1598.24 507.52" stroke="#132e65" stroke-width="1.5"></path><path d="M1598.24 507.52L1598.34 681.59" stroke="#132e65" stroke-width="1.5"></path><path d="M1598.24 507.52L1437.04 255.33" stroke="#132e65" stroke-width="1.5"></path><path d="M1598.24 507.52L1575.72 201.34" stroke="#132e65" stroke-width="1.5"></path><path d="M1598.34 681.59L1598.34 681.59" stroke="#132e65" stroke-width="1.5"></path><path d="M1598.34 681.59L1560.48 371.37" stroke="#132e65" stroke-width="1.5"></path><path d="M1598.34 681.59L1271.24 663.33" stroke="#132e65" stroke-width="1.5"></path><circle r="5" cx="-85" cy="345.83" fill="#132e65"></circle><circle r="5" cx="-102.67" cy="489.83" fill="#132e65"></circle><circle r="5" cx="-50.18" cy="652.38" fill="#132e65"></circle><circle r="5" cx="49.04" cy="403.41" fill="#132e65"></circle><circle r="5" cx="86.7" cy="561.04" fill="#132e65"></circle><circle r="5" cx="74.77" cy="682.15" fill="#132e65"></circle><circle r="5" cx="191.39" cy="399.59" fill="#132e65"></circle><circle r="5" cx="202.96" cy="538.99" fill="#132e65"></circle><circle r="5" cx="258.54" cy="710.6" fill="#132e65"></circle><circle r="5" cx="390.04" cy="379.01" fill="#132e65"></circle><circle r="5" cx="371.7" cy="541.94" fill="#132e65"></circle><circle r="5" cx="388.05" cy="670.57" fill="#132e65"></circle><circle r="5" cx="560.68" cy="379.58" fill="#132e65"></circle><circle r="5" cx="514.17" cy="515.88" fill="#132e65"></circle><circle r="5" cx="543.03" cy="677.69" fill="#132e65"></circle><circle r="5" cx="681.44" cy="393.02" fill="#132e65"></circle><circle r="5" cx="688.85" cy="534.83" fill="#132e65"></circle><circle r="5" cx="642.78" cy="710.19" fill="#132e65"></circle><circle r="5" cx="851.72" cy="220.46" fill="#132e65"></circle><circle r="5" cx="830.93" cy="397.33" fill="#132e65"></circle><circle r="5" cx="829.4" cy="545.47" fill="#132e65"></circle><circle r="5" cx="800.87" cy="685.02" fill="#132e65"></circle><circle r="5" cx="971.72" cy="46.46" fill="#132e65"></circle><circle r="5" cx="948.28" cy="234.75" fill="#132e65"></circle><circle r="5" cx="946.33" cy="386.91" fill="#132e65"></circle><circle r="5" cx="938.11" cy="557.48" fill="#132e65"></circle><circle r="5" cx="978.66" cy="655.02" fill="#132e65"></circle><circle r="5" cx="1114.05" cy="-52.52" fill="#132e65"></circle><circle r="5" cx="1090.79" cy="209.46" fill="#132e65"></circle><circle r="5" cx="1138.2" cy="342.1" fill="#132e65"></circle><circle r="5" cx="1102.42" cy="556.97" fill="#132e65"></circle><circle r="5" cx="1148.53" cy="708.98" fill="#132e65"></circle><circle r="5" cx="1278.51" cy="-71.05" fill="#132e65"></circle><circle r="5" cx="1259.82" cy="105.28" fill="#132e65"></circle><circle r="5" cx="1262.93" cy="246.39" fill="#132e65"></circle><circle r="5" cx="1238.39" cy="339.73" fill="#132e65"></circle><circle r="5" cx="1271.24" cy="663.33" fill="#132e65"></circle><circle r="5" cx="1432.75" cy="-96.21" fill="#132e65"></circle><circle r="5" cx="1437.04" cy="255.33" fill="#132e65"></circle><circle r="5" cx="1431.37" cy="368.2" fill="#132e65"></circle><circle r="5" cx="1417.06" cy="522.99" fill="#132e65"></circle><circle r="5" cx="1572.07" cy="-100.95" fill="#132e65"></circle><circle r="5" cx="1563.06" cy="68.33" fill="#132e65"></circle><circle r="5" cx="1575.72" cy="201.34" fill="#132e65"></circle><circle r="5" cx="1560.48" cy="371.37" fill="#132e65"></circle><circle r="5" cx="1598.24" cy="507.52" fill="#132e65"></circle><circle r="5" cx="1598.34" cy="681.59" fill="#132e65"></circle><path d="M-98.79 555.38L-98.79 555.38" stroke="hsl(228.5, 77.2%, 51.5%)" stroke-width="1.5"></path><path d="M-98.79 555.38L-65.67 666.34" stroke="hsl(228.5, 77.2%, 51.5%)" stroke-width="1.5"></path><path d="M-98.79 555.38L83.38 559.17" stroke="hsl(228.5, 77.2%, 51.5%)" stroke-width="1.5"></path><path d="M-98.79 555.38L62.31 644.76" stroke="hsl(228.5, 77.2%, 51.5%)" stroke-width="1.5"></path><path d="M395.36 540.29L395.36 540.29" stroke="hsl(228.5, 77.2%, 51.5%)" stroke-width="1.5"></path><path d="M395.36 540.29L494.05 553.4" stroke="hsl(228.5, 77.2%, 51.5%)" stroke-width="1.5"></path><path d="M395.36 540.29L378.27 664.19" stroke="hsl(228.5, 77.2%, 51.5%)" stroke-width="1.5"></path><path d="M395.36 540.29L198.11 517.57" stroke="hsl(228.5, 77.2%, 51.5%)" stroke-width="1.5"></path><path d="M395.36 540.29L543.94 701.58" stroke="hsl(228.5, 77.2%, 51.5%)" stroke-width="1.5"></path><path d="M395.36 540.29L667.77 395.61" stroke="hsl(228.5, 77.2%, 51.5%)" stroke-width="1.5"></path><path d="M395.36 540.29L704.14 524.75" stroke="hsl(228.5, 77.2%, 51.5%)" stroke-width="1.5"></path><path d="M1005.87 393.35L1005.87 393.35" stroke="hsl(228.5, 77.2%, 51.5%)" stroke-width="1.5"></path><path d="M1005.87 393.35L993.19 519.73" stroke="hsl(228.5, 77.2%, 51.5%)" stroke-width="1.5"></path><path d="M1005.87 393.35L1095.16 504.12" stroke="hsl(228.5, 77.2%, 51.5%)" stroke-width="1.5"></path><path d="M1005.87 393.35L1158.32 385.83" stroke="hsl(228.5, 77.2%, 51.5%)" stroke-width="1.5"></path><path d="M1005.87 393.35L859.82 502.82" stroke="hsl(228.5, 77.2%, 51.5%)" stroke-width="1.5"></path><path d="M1281.14 660.64L1281.14 660.64" stroke="hsl(228.5, 77.2%, 51.5%)" stroke-width="1.5"></path><path d="M1281.14 660.64L1300.01 542.38" stroke="hsl(228.5, 77.2%, 51.5%)" stroke-width="1.5"></path><path d="M1281.14 660.64L1402.83 528.02" stroke="hsl(228.5, 77.2%, 51.5%)" stroke-width="1.5"></path><path d="M1281.14 660.64L1095.16 504.12" stroke="hsl(228.5, 77.2%, 51.5%)" stroke-width="1.5"></path><path d="M1426.58 215.46L1426.58 215.46" stroke="hsl(228.5, 77.2%, 51.5%)" stroke-width="1.5"></path><path d="M1426.58 215.46L1387.7 91.18" stroke="hsl(228.5, 77.2%, 51.5%)" stroke-width="1.5"></path><path d="M1426.58 215.46L1277.78 221.06" stroke="hsl(228.5, 77.2%, 51.5%)" stroke-width="1.5"></path><path d="M1426.58 215.46L1451.11 388.66" stroke="hsl(228.5, 77.2%, 51.5%)" stroke-width="1.5"></path><path d="M1426.58 215.46L1309.24 348.57" stroke="hsl(228.5, 77.2%, 51.5%)" stroke-width="1.5"></path><path d="M1426.58 215.46L1255.59 48.28" stroke="hsl(228.5, 77.2%, 51.5%)" stroke-width="1.5"></path><path d="M-65.67 666.34L-65.67 666.34" stroke="hsl(228.5, 77.2%, 51.5%)" stroke-width="1.5"></path><path d="M-65.67 666.34L62.31 644.76" stroke="hsl(228.5, 77.2%, 51.5%)" stroke-width="1.5"></path><path d="M-65.67 666.34L83.38 559.17" stroke="hsl(228.5, 77.2%, 51.5%)" stroke-width="1.5"></path><path d="M83.38 559.17L83.38 559.17" stroke="hsl(228.5, 77.2%, 51.5%)" stroke-width="1.5"></path><path d="M83.38 559.17L62.31 644.76" stroke="hsl(228.5, 77.2%, 51.5%)" stroke-width="1.5"></path><path d="M83.38 559.17L198.11 517.57" stroke="hsl(228.5, 77.2%, 51.5%)" stroke-width="1.5"></path><path d="M62.31 644.76L62.31 644.76" stroke="hsl(228.5, 77.2%, 51.5%)" stroke-width="1.5"></path><path d="M62.31 644.76L198.11 517.57" stroke="hsl(228.5, 77.2%, 51.5%)" stroke-width="1.5"></path><path d="M198.11 517.57L198.11 517.57" stroke="hsl(228.5, 77.2%, 51.5%)" stroke-width="1.5"></path><path d="M198.11 517.57L378.27 664.19" stroke="hsl(228.5, 77.2%, 51.5%)" stroke-width="1.5"></path><path d="M198.11 517.57L494.05 553.4" stroke="hsl(228.5, 77.2%, 51.5%)" stroke-width="1.5"></path><path d="M198.11 517.57L-98.79 555.38" stroke="hsl(228.5, 77.2%, 51.5%)" stroke-width="1.5"></path><path d="M378.27 664.19L378.27 664.19" stroke="hsl(228.5, 77.2%, 51.5%)" stroke-width="1.5"></path><path d="M378.27 664.19L494.05 553.4" stroke="hsl(228.5, 77.2%, 51.5%)" stroke-width="1.5"></path><path d="M494.05 553.4L494.05 553.4" stroke="hsl(228.5, 77.2%, 51.5%)" stroke-width="1.5"></path><path d="M494.05 553.4L543.94 701.58" stroke="hsl(228.5, 77.2%, 51.5%)" stroke-width="1.5"></path><path d="M494.05 553.4L704.14 524.75" stroke="hsl(228.5, 77.2%, 51.5%)" stroke-width="1.5"></path><path d="M494.05 553.4L667.77 395.61" stroke="hsl(228.5, 77.2%, 51.5%)" stroke-width="1.5"></path><path d="M494.05 553.4L712.32 705.88" stroke="hsl(228.5, 77.2%, 51.5%)" stroke-width="1.5"></path><path d="M543.94 701.58L543.94 701.58" stroke="hsl(228.5, 77.2%, 51.5%)" stroke-width="1.5"></path><path d="M543.94 701.58L712.32 705.88" stroke="hsl(228.5, 77.2%, 51.5%)" stroke-width="1.5"></path><path d="M543.94 701.58L378.27 664.19" stroke="hsl(228.5, 77.2%, 51.5%)" stroke-width="1.5"></path><path d="M543.94 701.58L704.14 524.75" stroke="hsl(228.5, 77.2%, 51.5%)" stroke-width="1.5"></path><path d="M667.77 395.61L667.77 395.61" stroke="hsl(228.5, 77.2%, 51.5%)" stroke-width="1.5"></path><path d="M667.77 395.61L704.14 524.75" stroke="hsl(228.5, 77.2%, 51.5%)" stroke-width="1.5"></path><path d="M667.77 395.61L815.62 390.9" stroke="hsl(228.5, 77.2%, 51.5%)" stroke-width="1.5"></path><path d="M667.77 395.61L859.82 502.82" stroke="hsl(228.5, 77.2%, 51.5%)" stroke-width="1.5"></path><path d="M704.14 524.75L704.14 524.75" stroke="hsl(228.5, 77.2%, 51.5%)" stroke-width="1.5"></path><path d="M704.14 524.75L859.82 502.82" stroke="hsl(228.5, 77.2%, 51.5%)" stroke-width="1.5"></path><path d="M704.14 524.75L815.62 390.9" stroke="hsl(228.5, 77.2%, 51.5%)" stroke-width="1.5"></path><path d="M704.14 524.75L712.32 705.88" stroke="hsl(228.5, 77.2%, 51.5%)" stroke-width="1.5"></path><path d="M712.32 705.88L712.32 705.88" stroke="hsl(228.5, 77.2%, 51.5%)" stroke-width="1.5"></path><path d="M712.32 705.88L859.82 502.82" stroke="hsl(228.5, 77.2%, 51.5%)" stroke-width="1.5"></path><path d="M712.32 705.88L960.04 660.63" stroke="hsl(228.5, 77.2%, 51.5%)" stroke-width="1.5"></path><path d="M712.32 705.88L667.77 395.61" stroke="hsl(228.5, 77.2%, 51.5%)" stroke-width="1.5"></path><path d="M815.62 390.9L815.62 390.9" stroke="hsl(228.5, 77.2%, 51.5%)" stroke-width="1.5"></path><path d="M815.62 390.9L859.82 502.82" stroke="hsl(228.5, 77.2%, 51.5%)" stroke-width="1.5"></path><path d="M815.62 390.9L1005.87 393.35" stroke="hsl(228.5, 77.2%, 51.5%)" stroke-width="1.5"></path><path d="M815.62 390.9L993.19 519.73" stroke="hsl(228.5, 77.2%, 51.5%)" stroke-width="1.5"></path><path d="M859.82 502.82L859.82 502.82" stroke="hsl(228.5, 77.2%, 51.5%)" stroke-width="1.5"></path><path d="M859.82 502.82L993.19 519.73" stroke="hsl(228.5, 77.2%, 51.5%)" stroke-width="1.5"></path><path d="M993.19 519.73L993.19 519.73" stroke="hsl(228.5, 77.2%, 51.5%)" stroke-width="1.5"></path><path d="M993.19 519.73L1095.16 504.12" stroke="hsl(228.5, 77.2%, 51.5%)" stroke-width="1.5"></path><path d="M993.19 519.73L960.04 660.63" stroke="hsl(228.5, 77.2%, 51.5%)" stroke-width="1.5"></path><path d="M993.19 519.73L1158.32 385.83" stroke="hsl(228.5, 77.2%, 51.5%)" stroke-width="1.5"></path><path d="M960.04 660.63L960.04 660.63" stroke="hsl(228.5, 77.2%, 51.5%)" stroke-width="1.5"></path><path d="M960.04 660.63L859.82 502.82" stroke="hsl(228.5, 77.2%, 51.5%)" stroke-width="1.5"></path><path d="M1148.47 106.56L1148.47 106.56" stroke="hsl(228.5, 77.2%, 51.5%)" stroke-width="1.5"></path><path d="M1148.47 106.56L1255.59 48.28" stroke="hsl(228.5, 77.2%, 51.5%)" stroke-width="1.5"></path><path d="M1148.47 106.56L1124.57 253.63" stroke="hsl(228.5, 77.2%, 51.5%)" stroke-width="1.5"></path><path d="M1148.47 106.56L1277.78 221.06" stroke="hsl(228.5, 77.2%, 51.5%)" stroke-width="1.5"></path><path d="M1148.47 106.56L1387.7 91.18" stroke="hsl(228.5, 77.2%, 51.5%)" stroke-width="1.5"></path><path d="M1148.47 106.56L1158.32 385.83" stroke="hsl(228.5, 77.2%, 51.5%)" stroke-width="1.5"></path><path d="M1148.47 106.56L1309.24 348.57" stroke="hsl(228.5, 77.2%, 51.5%)" stroke-width="1.5"></path><path d="M1124.57 253.63L1124.57 253.63" stroke="hsl(228.5, 77.2%, 51.5%)" stroke-width="1.5"></path><path d="M1124.57 253.63L1158.32 385.83" stroke="hsl(228.5, 77.2%, 51.5%)" stroke-width="1.5"></path><path d="M1124.57 253.63L1277.78 221.06" stroke="hsl(228.5, 77.2%, 51.5%)" stroke-width="1.5"></path><path d="M1158.32 385.83L1158.32 385.83" stroke="hsl(228.5, 77.2%, 51.5%)" stroke-width="1.5"></path><path d="M1158.32 385.83L1095.16 504.12" stroke="hsl(228.5, 77.2%, 51.5%)" stroke-width="1.5"></path><path d="M1095.16 504.12L1095.16 504.12" stroke="hsl(228.5, 77.2%, 51.5%)" stroke-width="1.5"></path><path d="M1095.16 504.12L960.04 660.63" stroke="hsl(228.5, 77.2%, 51.5%)" stroke-width="1.5"></path><path d="M1255.59 48.28L1255.59 48.28" stroke="hsl(228.5, 77.2%, 51.5%)" stroke-width="1.5"></path><path d="M1255.59 48.28L1387.7 91.18" stroke="hsl(228.5, 77.2%, 51.5%)" stroke-width="1.5"></path><path d="M1255.59 48.28L1391.17 -58.38" stroke="hsl(228.5, 77.2%, 51.5%)" stroke-width="1.5"></path><path d="M1255.59 48.28L1277.78 221.06" stroke="hsl(228.5, 77.2%, 51.5%)" stroke-width="1.5"></path><path d="M1277.78 221.06L1277.78 221.06" stroke="hsl(228.5, 77.2%, 51.5%)" stroke-width="1.5"></path><path d="M1277.78 221.06L1309.24 348.57" stroke="hsl(228.5, 77.2%, 51.5%)" stroke-width="1.5"></path><path d="M1277.78 221.06L1387.7 91.18" stroke="hsl(228.5, 77.2%, 51.5%)" stroke-width="1.5"></path><path d="M1309.24 348.57L1309.24 348.57" stroke="hsl(228.5, 77.2%, 51.5%)" stroke-width="1.5"></path><path d="M1309.24 348.57L1451.11 388.66" stroke="hsl(228.5, 77.2%, 51.5%)" stroke-width="1.5"></path><path d="M1309.24 348.57L1158.32 385.83" stroke="hsl(228.5, 77.2%, 51.5%)" stroke-width="1.5"></path><path d="M1300.01 542.38L1300.01 542.38" stroke="hsl(228.5, 77.2%, 51.5%)" stroke-width="1.5"></path><path d="M1300.01 542.38L1402.83 528.02" stroke="hsl(228.5, 77.2%, 51.5%)" stroke-width="1.5"></path><path d="M1300.01 542.38L1309.24 348.57" stroke="hsl(228.5, 77.2%, 51.5%)" stroke-width="1.5"></path><path d="M1300.01 542.38L1095.16 504.12" stroke="hsl(228.5, 77.2%, 51.5%)" stroke-width="1.5"></path><path d="M1300.01 542.38L1158.32 385.83" stroke="hsl(228.5, 77.2%, 51.5%)" stroke-width="1.5"></path><path d="M1391.17 -58.38L1391.17 -58.38" stroke="hsl(228.5, 77.2%, 51.5%)" stroke-width="1.5"></path><path d="M1391.17 -58.38L1387.7 91.18" stroke="hsl(228.5, 77.2%, 51.5%)" stroke-width="1.5"></path><path d="M1387.7 91.18L1387.7 91.18" stroke="hsl(228.5, 77.2%, 51.5%)" stroke-width="1.5"></path><path d="M1451.11 388.66L1451.11 388.66" stroke="hsl(228.5, 77.2%, 51.5%)" stroke-width="1.5"></path><path d="M1451.11 388.66L1402.83 528.02" stroke="hsl(228.5, 77.2%, 51.5%)" stroke-width="1.5"></path><path d="M1402.83 528.02L1402.83 528.02" stroke="hsl(228.5, 77.2%, 51.5%)" stroke-width="1.5"></path><path d="M1605.67 -93.45L1605.67 -93.45" stroke="hsl(228.5, 77.2%, 51.5%)" stroke-width="1.5"></path><path d="M1605.67 -93.45L1391.17 -58.38" stroke="hsl(228.5, 77.2%, 51.5%)" stroke-width="1.5"></path><path d="M1605.67 -93.45L1387.7 91.18" stroke="hsl(228.5, 77.2%, 51.5%)" stroke-width="1.5"></path><path d="M1605.67 -93.45L1426.58 215.46" stroke="hsl(228.5, 77.2%, 51.5%)" stroke-width="1.5"></path><path d="M1605.67 -93.45L1255.59 48.28" stroke="hsl(228.5, 77.2%, 51.5%)" stroke-width="1.5"></path><path d="M1605.67 -93.45L1277.78 221.06" stroke="hsl(228.5, 77.2%, 51.5%)" stroke-width="1.5"></path><path d="M1605.67 -93.45L1148.47 106.56" stroke="hsl(228.5, 77.2%, 51.5%)" stroke-width="1.5"></path><path d="M1552.64 560.3L1552.64 560.3" stroke="hsl(228.5, 77.2%, 51.5%)" stroke-width="1.5"></path><path d="M1552.64 560.3L1593.66 665.28" stroke="hsl(228.5, 77.2%, 51.5%)" stroke-width="1.5"></path><path d="M1552.64 560.3L1402.83 528.02" stroke="hsl(228.5, 77.2%, 51.5%)" stroke-width="1.5"></path><path d="M1552.64 560.3L1451.11 388.66" stroke="hsl(228.5, 77.2%, 51.5%)" stroke-width="1.5"></path><path d="M1593.66 665.28L1593.66 665.28" stroke="hsl(228.5, 77.2%, 51.5%)" stroke-width="1.5"></path><path d="M1593.66 665.28L1402.83 528.02" stroke="hsl(228.5, 77.2%, 51.5%)" stroke-width="1.5"></path><path d="M1593.66 665.28L1451.11 388.66" stroke="hsl(228.5, 77.2%, 51.5%)" stroke-width="1.5"></path><path d="M1593.66 665.28L1281.14 660.64" stroke="hsl(228.5, 77.2%, 51.5%)" stroke-width="1.5"></path><path d="M1593.66 665.28L1300.01 542.38" stroke="hsl(228.5, 77.2%, 51.5%)" stroke-width="1.5"></path><circle r="25" cx="-98.79" cy="555.38" fill="url(&quot;#SvgjsRadialGradient1011&quot;)"></circle><circle r="25" cx="395.36" cy="540.29" fill="url(&quot;#SvgjsRadialGradient1011&quot;)"></circle><circle r="25" cx="1005.87" cy="393.35" fill="url(&quot;#SvgjsRadialGradient1011&quot;)"></circle><circle r="25" cx="1281.14" cy="660.64" fill="url(&quot;#SvgjsRadialGradient1011&quot;)"></circle><circle r="25" cx="1426.58" cy="215.46" fill="url(&quot;#SvgjsRadialGradient1011&quot;)"></circle><circle r="5" cx="-65.67" cy="666.34" fill="#8b9ad9"></circle><circle r="5" cx="83.38" cy="559.17" fill="#8b9ad9"></circle><circle r="5" cx="62.31" cy="644.76" fill="#8b9ad9"></circle><circle r="5" cx="198.11" cy="517.57" fill="#8b9ad9"></circle><circle r="5" cx="378.27" cy="664.19" fill="#8b9ad9"></circle><circle r="5" cx="494.05" cy="553.4" fill="#8b9ad9"></circle><circle r="5" cx="543.94" cy="701.58" fill="#8b9ad9"></circle><circle r="5" cx="667.77" cy="395.61" fill="#8b9ad9"></circle><circle r="5" cx="704.14" cy="524.75" fill="#8b9ad9"></circle><circle r="5" cx="712.32" cy="705.88" fill="#8b9ad9"></circle><circle r="5" cx="815.62" cy="390.9" fill="#8b9ad9"></circle><circle r="5" cx="859.82" cy="502.82" fill="#8b9ad9"></circle><circle r="5" cx="993.19" cy="519.73" fill="#8b9ad9"></circle><circle r="5" cx="960.04" cy="660.63" fill="#8b9ad9"></circle><circle r="5" cx="1148.47" cy="106.56" fill="#8b9ad9"></circle><circle r="5" cx="1124.57" cy="253.63" fill="#8b9ad9"></circle><circle r="5" cx="1158.32" cy="385.83" fill="#8b9ad9"></circle><circle r="5" cx="1095.16" cy="504.12" fill="#8b9ad9"></circle><circle r="5" cx="1255.59" cy="48.28" fill="#8b9ad9"></circle><circle r="5" cx="1277.78" cy="221.06" fill="#8b9ad9"></circle><circle r="5" cx="1309.24" cy="348.57" fill="#8b9ad9"></circle><circle r="5" cx="1300.01" cy="542.38" fill="#8b9ad9"></circle><circle r="5" cx="1391.17" cy="-58.38" fill="#8b9ad9"></circle><circle r="5" cx="1387.7" cy="91.18" fill="#8b9ad9"></circle><circle r="5" cx="1451.11" cy="388.66" fill="#8b9ad9"></circle><circle r="5" cx="1402.83" cy="528.02" fill="#8b9ad9"></circle><circle r="5" cx="1605.67" cy="-93.45" fill="#8b9ad9"></circle><circle r="5" cx="1552.64" cy="560.3" fill="#8b9ad9"></circle><circle r="5" cx="1593.66" cy="665.28" fill="#8b9ad9"></circle></g><defs><mask id="SvgjsMask1009"><rect width="1440" height="560" fill="#ffffff"></rect></mask><linearGradient x1="15.28%" y1="-39.29%" x2="84.72%" y2="139.29%" gradientUnits="userSpaceOnUse" id="SvgjsLinearGradient1010"><stop stop-color="#0e2a47" offset="0"></stop><stop stop-color="#00459e" offset="1"></stop></linearGradient><radialGradient id="SvgjsRadialGradient1011"><stop stop-color="#ffffff" offset="0.1"></stop><stop stop-color="#1735b3" offset="0.2"></stop><stop stop-color="rgba(23, 53, 179, 0)" offset="1"></stop></radialGradient></defs></svg>